<svg width="256" height="256" viewBox="0 0 256 256" xmlns="http://www.w3.org/2000/svg">
  <defs>
    <linearGradient id="grad1" x1="0%" y1="0%" x2="100%" y2="100%">
      <stop offset="0%" style="stop-color:#667eea;stop-opacity:1" />
      <stop offset="100%" style="stop-color:#764ba2;stop-opacity:1" />
    </linearGradient>
  </defs>
  
  <!-- Background circle -->
  <circle cx="128" cy="128" r="120" fill="url(#grad1)" stroke="#fff" stroke-width="8"/>
  
  <!-- Building icon -->
  <rect x="80" y="80" width="96" height="120" fill="#fff" rx="4"/>
  
  <!-- Windows -->
  <rect x="90" y="95" width="12" height="12" fill="#667eea"/>
  <rect x="110" y="95" width="12" height="12" fill="#667eea"/>
  <rect x="130" y="95" width="12" height="12" fill="#667eea"/>
  <rect x="150" y="95" width="12" height="12" fill="#667eea"/>
  
  <rect x="90" y="115" width="12" height="12" fill="#667eea"/>
  <rect x="110" y="115" width="12" height="12" fill="#667eea"/>
  <rect x="130" y="115" width="12" height="12" fill="#667eea"/>
  <rect x="150" y="115" width="12" height="12" fill="#667eea"/>
  
  <rect x="90" y="135" width="12" height="12" fill="#667eea"/>
  <rect x="110" y="135" width="12" height="12" fill="#667eea"/>
  <rect x="130" y="135" width="12" height="12" fill="#667eea"/>
  <rect x="150" y="135" width="12" height="12" fill="#667eea"/>
  
  <rect x="90" y="155" width="12" height="12" fill="#667eea"/>
  <rect x="110" y="155" width="12" height="12" fill="#667eea"/>
  <rect x="130" y="155" width="12" height="12" fill="#667eea"/>
  <rect x="150" y="155" width="12" height="12" fill="#667eea"/>
  
  <!-- Door -->
  <rect x="115" y="175" width="26" height="25" fill="#764ba2"/>
  
  <!-- SGC text -->
  <text x="128" y="45" font-family="Arial, sans-serif" font-size="24" font-weight="bold" text-anchor="middle" fill="#fff">SGC</text>
</svg>