<?xml version="1.0" standalone="no"?>
<!DOCTYPE svg PUBLIC "-//W3C//DTD SVG 20010904//EN"
 "http://www.w3.org/TR/2001/REC-SVG-20010904/DTD/svg10.dtd">
<svg version="1.0" xmlns="http://www.w3.org/2000/svg"
 width="256.000000pt" height="256.000000pt" viewBox="0 0 256.000000 256.000000"
 preserveAspectRatio="xMidYMid meet">

<g transform="translate(0.000000,256.000000) scale(0.100000,-0.100000)"
fill="#000000" stroke="none">
<path d="M1179 2429 c-550 -43 -1001 -494 -1048 -1048 -73 -868 791 -1498
1597 -1165 356 147 615 468 688 853 22 112 22 310 0 422 -38 203 -128 387
-264 546 -181 211 -489 371 -747 388 -44 3 -91 7 -105 9 -14 1 -68 -1 -121 -5z
m-25 -165 c24 -24 19 -37 -11 -32 -16 3 -33 7 -39 9 -7 2 -12 0 -13 -6 -1 -5
12 -13 29 -18 16 -4 37 -19 46 -32 15 -23 15 -27 0 -50 -14 -21 -24 -25 -66
-25 -39 0 -52 4 -64 22 -9 12 -16 26 -16 30 0 13 39 9 64 -7 20 -14 25 -14 35
-1 11 13 8 16 -16 22 -64 15 -94 59 -61 92 18 18 94 15 112 -4z m191 -4 c17
-19 17 -20 0 -26 -10 -4 -30 -3 -46 3 -35 14 -69 -7 -69 -42 0 -28 34 -55 61
-48 25 7 25 23 -1 23 -11 0 -20 7 -20 15 0 11 12 15 45 15 45 0 45 0 45 -35 0
-41 -20 -55 -80 -55 -53 0 -74 12 -90 49 -15 36 -7 74 20 101 28 28 110 28
135 0z m173 8 c31 -31 -5 -51 -48 -28 -39 21 -69 -50 -35 -83 12 -12 21 -13
43 -5 16 6 37 8 47 4 17 -6 17 -7 0 -26 -13 -15 -31 -20 -66 -20 -39 0 -51 4
-68 26 -12 15 -21 41 -21 59 0 18 9 44 21 59 17 21 29 26 68 26 26 0 52 -5 59
-12z m237 -1108 l0 -595 -172 -3 -173 -2 0 125 0 125 -130 0 -130 0 0 -125 0
-125 -172 2 -173 3 -3 585 c-1 322 0 591 3 598 3 10 104 12 477 10 l473 -3 0
-595z"/>
</g>
</svg>
